<mxfile host="app.diagrams.net" modified="2024-02-08T19:40:35.271Z" agent="Mozilla/5.0 (X11; Linux x86_64; rv:109.0) Gecko/20100101 Firefox/112.0" etag="BQTKMHbRxQduNSMMRGsl" version="23.1.2" type="github">
  <diagram name="Страница — 1" id="jZybmhKR-CJjNB6S-2pk">
    <mxGraphModel dx="3434" dy="2545" grid="1" gridSize="10" guides="1" tooltips="1" connect="1" arrows="1" fold="1" page="1" pageScale="1" pageWidth="827" pageHeight="1169" math="0" shadow="0">
      <root>
        <mxCell id="0" />
        <mxCell id="1" parent="0" />
        <mxCell id="reuZfihGQCaQvjt2Z-B4-2" value="&amp;lt;&amp;lt;Interface&amp;gt;&amp;gt;&lt;br&gt;Executable" style="swimlane;fontStyle=1;align=center;verticalAlign=top;childLayout=stackLayout;horizontal=1;startSize=40;horizontalStack=0;resizeParent=1;resizeParentMax=0;resizeLast=0;collapsible=1;marginBottom=0;whiteSpace=wrap;html=1;" vertex="1" parent="1">
          <mxGeometry x="710" y="70" width="180" height="100" as="geometry" />
        </mxCell>
        <mxCell id="reuZfihGQCaQvjt2Z-B4-4" value="" style="line;strokeWidth=1;fillColor=none;align=left;verticalAlign=middle;spacingTop=-1;spacingLeft=3;spacingRight=3;rotatable=0;labelPosition=right;points=[];portConstraint=eastwest;strokeColor=inherit;" vertex="1" parent="reuZfihGQCaQvjt2Z-B4-2">
          <mxGeometry y="40" width="180" height="8" as="geometry" />
        </mxCell>
        <mxCell id="reuZfihGQCaQvjt2Z-B4-5" value="+ execute(args: String[]): void&lt;br&gt;+ getName(): String&lt;br&gt;&lt;div&gt;+ getDescription(): String&lt;/div&gt;" style="text;strokeColor=none;fillColor=none;align=left;verticalAlign=top;spacingLeft=4;spacingRight=4;overflow=hidden;rotatable=0;points=[[0,0.5],[1,0.5]];portConstraint=eastwest;whiteSpace=wrap;html=1;" vertex="1" parent="reuZfihGQCaQvjt2Z-B4-2">
          <mxGeometry y="48" width="180" height="52" as="geometry" />
        </mxCell>
        <mxCell id="reuZfihGQCaQvjt2Z-B4-6" value="&amp;lt;&amp;lt;Abstract&amp;gt;&amp;gt;&lt;br&gt;&lt;div&gt;Command&lt;/div&gt;" style="swimlane;fontStyle=1;align=center;verticalAlign=top;childLayout=stackLayout;horizontal=1;startSize=40;horizontalStack=0;resizeParent=1;resizeParentMax=0;resizeLast=0;collapsible=1;marginBottom=0;whiteSpace=wrap;html=1;" vertex="1" parent="1">
          <mxGeometry x="545" y="210" width="230" height="184" as="geometry" />
        </mxCell>
        <mxCell id="reuZfihGQCaQvjt2Z-B4-7" value="~ Name: String&lt;br&gt;&lt;div&gt;~ Description: String&lt;/div&gt;&lt;div&gt;~ commandmanager: CommandManager&lt;/div&gt;&lt;div&gt;~ console: Console&lt;/div&gt;&lt;div&gt;~ collectiondata: CollectionData&lt;br&gt;&lt;/div&gt;&lt;div&gt;~ argsnumber: int&lt;/div&gt;&lt;div&gt;~ parametersAdvices: String[]&lt;br&gt;&lt;/div&gt;" style="text;strokeColor=none;fillColor=none;align=left;verticalAlign=top;spacingLeft=4;spacingRight=4;overflow=hidden;rotatable=0;points=[[0,0.5],[1,0.5]];portConstraint=eastwest;whiteSpace=wrap;html=1;" vertex="1" parent="reuZfihGQCaQvjt2Z-B4-6">
          <mxGeometry y="40" width="230" height="110" as="geometry" />
        </mxCell>
        <mxCell id="reuZfihGQCaQvjt2Z-B4-8" value="" style="line;strokeWidth=1;fillColor=none;align=left;verticalAlign=middle;spacingTop=-1;spacingLeft=3;spacingRight=3;rotatable=0;labelPosition=right;points=[];portConstraint=eastwest;strokeColor=inherit;" vertex="1" parent="reuZfihGQCaQvjt2Z-B4-6">
          <mxGeometry y="150" width="230" height="8" as="geometry" />
        </mxCell>
        <mxCell id="reuZfihGQCaQvjt2Z-B4-9" value="+ check(argsnumber: int): void" style="text;strokeColor=none;fillColor=none;align=left;verticalAlign=top;spacingLeft=4;spacingRight=4;overflow=hidden;rotatable=0;points=[[0,0.5],[1,0.5]];portConstraint=eastwest;whiteSpace=wrap;html=1;" vertex="1" parent="reuZfihGQCaQvjt2Z-B4-6">
          <mxGeometry y="158" width="230" height="26" as="geometry" />
        </mxCell>
        <mxCell id="reuZfihGQCaQvjt2Z-B4-10" value="" style="endArrow=block;dashed=1;endFill=0;endSize=12;html=1;rounded=0;" edge="1" parent="1" source="reuZfihGQCaQvjt2Z-B4-6" target="reuZfihGQCaQvjt2Z-B4-2">
          <mxGeometry width="160" relative="1" as="geometry">
            <mxPoint x="330" y="310" as="sourcePoint" />
            <mxPoint x="490" y="310" as="targetPoint" />
          </mxGeometry>
        </mxCell>
        <mxCell id="reuZfihGQCaQvjt2Z-B4-12" value="&lt;div&gt;Add&lt;/div&gt;" style="swimlane;fontStyle=1;align=center;verticalAlign=top;childLayout=stackLayout;horizontal=1;startSize=26;horizontalStack=0;resizeParent=1;resizeParentMax=0;resizeLast=0;collapsible=1;marginBottom=0;whiteSpace=wrap;html=1;" vertex="1" parent="1">
          <mxGeometry x="710" y="443" width="180" height="60" as="geometry" />
        </mxCell>
        <mxCell id="reuZfihGQCaQvjt2Z-B4-14" value="" style="line;strokeWidth=1;fillColor=none;align=left;verticalAlign=middle;spacingTop=-1;spacingLeft=3;spacingRight=3;rotatable=0;labelPosition=right;points=[];portConstraint=eastwest;strokeColor=inherit;" vertex="1" parent="reuZfihGQCaQvjt2Z-B4-12">
          <mxGeometry y="26" width="180" height="8" as="geometry" />
        </mxCell>
        <mxCell id="reuZfihGQCaQvjt2Z-B4-15" value="+ execute(args: String[]): void" style="text;strokeColor=none;fillColor=none;align=left;verticalAlign=top;spacingLeft=4;spacingRight=4;overflow=hidden;rotatable=0;points=[[0,0.5],[1,0.5]];portConstraint=eastwest;whiteSpace=wrap;html=1;" vertex="1" parent="reuZfihGQCaQvjt2Z-B4-12">
          <mxGeometry y="34" width="180" height="26" as="geometry" />
        </mxCell>
        <mxCell id="reuZfihGQCaQvjt2Z-B4-16" value="Console" style="swimlane;fontStyle=1;align=center;verticalAlign=top;childLayout=stackLayout;horizontal=1;startSize=26;horizontalStack=0;resizeParent=1;resizeParentMax=0;resizeLast=0;collapsible=1;marginBottom=0;whiteSpace=wrap;html=1;" vertex="1" parent="1">
          <mxGeometry x="230" y="147" width="220" height="310" as="geometry" />
        </mxCell>
        <mxCell id="reuZfihGQCaQvjt2Z-B4-17" value="&lt;div&gt;- scanner: Scanner&lt;/div&gt;&lt;div&gt;- active: boolean&lt;/div&gt;&lt;div&gt;- commandmanager: CommandManager&lt;/div&gt;&lt;div&gt;- collectiondata: CollectionData&lt;/div&gt;&lt;div&gt;- history: LinkedList&amp;lt;Command&amp;gt;&lt;/div&gt;&lt;div&gt;- commandsStack: LinkedList&amp;lt;String&amp;gt;&lt;/div&gt;&lt;div&gt;- stacksize: int&lt;br&gt;&lt;/div&gt;&lt;div&gt;&lt;br&gt;&lt;/div&gt;" style="text;strokeColor=none;fillColor=none;align=left;verticalAlign=top;spacingLeft=4;spacingRight=4;overflow=hidden;rotatable=0;points=[[0,0.5],[1,0.5]];portConstraint=eastwest;whiteSpace=wrap;html=1;" vertex="1" parent="reuZfihGQCaQvjt2Z-B4-16">
          <mxGeometry y="26" width="220" height="124" as="geometry" />
        </mxCell>
        <mxCell id="reuZfihGQCaQvjt2Z-B4-18" value="" style="line;strokeWidth=1;fillColor=none;align=left;verticalAlign=middle;spacingTop=-1;spacingLeft=3;spacingRight=3;rotatable=0;labelPosition=right;points=[];portConstraint=eastwest;strokeColor=inherit;" vertex="1" parent="reuZfihGQCaQvjt2Z-B4-16">
          <mxGeometry y="150" width="220" height="8" as="geometry" />
        </mxCell>
        <mxCell id="reuZfihGQCaQvjt2Z-B4-19" value="&lt;div&gt;+ start(): void&lt;/div&gt;&lt;div&gt;+ print(line: String): void&lt;/div&gt;&lt;div&gt;+ println(line: String): void&lt;/div&gt;&lt;div&gt;+ readCommand(): void&lt;/div&gt;&lt;div&gt;+ readln(): String&lt;br&gt;&lt;/div&gt;&lt;div&gt;+ stop(): void&lt;br&gt;+ printCollection(): void&lt;/div&gt;&lt;div&gt;+ printInfo(): void&lt;/div&gt;&lt;div&gt;+ printHistory(): void&lt;/div&gt;&lt;div&gt;+ readScript(filename: String): void&lt;br&gt;&lt;/div&gt;" style="text;strokeColor=none;fillColor=none;align=left;verticalAlign=top;spacingLeft=4;spacingRight=4;overflow=hidden;rotatable=0;points=[[0,0.5],[1,0.5]];portConstraint=eastwest;whiteSpace=wrap;html=1;" vertex="1" parent="reuZfihGQCaQvjt2Z-B4-16">
          <mxGeometry y="158" width="220" height="152" as="geometry" />
        </mxCell>
        <mxCell id="reuZfihGQCaQvjt2Z-B4-21" value="Use" style="endArrow=open;endSize=12;dashed=1;html=1;rounded=0;" edge="1" parent="1" source="reuZfihGQCaQvjt2Z-B4-16" target="reuZfihGQCaQvjt2Z-B4-6">
          <mxGeometry width="160" relative="1" as="geometry">
            <mxPoint x="370" y="300" as="sourcePoint" />
            <mxPoint x="530" y="300" as="targetPoint" />
          </mxGeometry>
        </mxCell>
        <mxCell id="reuZfihGQCaQvjt2Z-B4-23" value="CollectionData" style="swimlane;fontStyle=1;align=center;verticalAlign=top;childLayout=stackLayout;horizontal=1;startSize=26;horizontalStack=0;resizeParent=1;resizeParentMax=0;resizeLast=0;collapsible=1;marginBottom=0;whiteSpace=wrap;html=1;" vertex="1" parent="1">
          <mxGeometry x="350" y="520" width="270" height="250" as="geometry" />
        </mxCell>
        <mxCell id="reuZfihGQCaQvjt2Z-B4-24" value="&lt;div&gt;- dragons: LinkedList&amp;lt;Dragon&amp;gt;&lt;/div&gt;&lt;div&gt;- filename: String&lt;/div&gt;&lt;div&gt;- initDate: Date&lt;/div&gt;&lt;div&gt;- maxId: int&lt;br&gt;&lt;/div&gt;" style="text;strokeColor=none;fillColor=none;align=left;verticalAlign=top;spacingLeft=4;spacingRight=4;overflow=hidden;rotatable=0;points=[[0,0.5],[1,0.5]];portConstraint=eastwest;whiteSpace=wrap;html=1;" vertex="1" parent="reuZfihGQCaQvjt2Z-B4-23">
          <mxGeometry y="26" width="270" height="64" as="geometry" />
        </mxCell>
        <mxCell id="reuZfihGQCaQvjt2Z-B4-25" value="" style="line;strokeWidth=1;fillColor=none;align=left;verticalAlign=middle;spacingTop=-1;spacingLeft=3;spacingRight=3;rotatable=0;labelPosition=right;points=[];portConstraint=eastwest;strokeColor=inherit;" vertex="1" parent="reuZfihGQCaQvjt2Z-B4-23">
          <mxGeometry y="90" width="270" height="8" as="geometry" />
        </mxCell>
        <mxCell id="reuZfihGQCaQvjt2Z-B4-26" value="&lt;div&gt;+ save(): void&lt;/div&gt;&lt;div&gt;+ getDragons(): LinkedList&amp;lt;Dragon&amp;gt;&lt;br&gt;+ clear(): void&lt;/div&gt;&lt;div&gt;+ sort(): void&lt;br&gt;+ createDragon(splitted: String[], id: int): Dragon&lt;/div&gt;&lt;div&gt;+ add(splitted: String[]): void&lt;/div&gt;&lt;div&gt;+ update(parameters: String[], id: int): void&lt;/div&gt;&lt;div&gt;+ remove(id: int): void&lt;/div&gt;&lt;div&gt;+ removeIndex(index: int): void&lt;/div&gt;&lt;div&gt;+ sumAge(): int&lt;br&gt;&lt;/div&gt;" style="text;strokeColor=none;fillColor=none;align=left;verticalAlign=top;spacingLeft=4;spacingRight=4;overflow=hidden;rotatable=0;points=[[0,0.5],[1,0.5]];portConstraint=eastwest;whiteSpace=wrap;html=1;" vertex="1" parent="reuZfihGQCaQvjt2Z-B4-23">
          <mxGeometry y="98" width="270" height="152" as="geometry" />
        </mxCell>
        <mxCell id="reuZfihGQCaQvjt2Z-B4-27" value="Use" style="endArrow=open;endSize=12;dashed=1;html=1;rounded=0;" edge="1" parent="1" source="reuZfihGQCaQvjt2Z-B4-16" target="reuZfihGQCaQvjt2Z-B4-23">
          <mxGeometry width="160" relative="1" as="geometry">
            <mxPoint x="400" y="360" as="sourcePoint" />
            <mxPoint x="500" y="400" as="targetPoint" />
          </mxGeometry>
        </mxCell>
        <mxCell id="reuZfihGQCaQvjt2Z-B4-28" value="Use" style="endArrow=open;endSize=12;dashed=1;html=1;rounded=0;" edge="1" parent="1" source="reuZfihGQCaQvjt2Z-B4-6" target="reuZfihGQCaQvjt2Z-B4-16">
          <mxGeometry width="160" relative="1" as="geometry">
            <mxPoint x="400" y="360" as="sourcePoint" />
            <mxPoint x="560" y="360" as="targetPoint" />
            <Array as="points">
              <mxPoint x="530" y="330" />
            </Array>
          </mxGeometry>
        </mxCell>
        <mxCell id="reuZfihGQCaQvjt2Z-B4-29" value="Use" style="endArrow=open;endSize=12;dashed=1;html=1;rounded=0;" edge="1" parent="1" source="reuZfihGQCaQvjt2Z-B4-6" target="reuZfihGQCaQvjt2Z-B4-23">
          <mxGeometry width="160" relative="1" as="geometry">
            <mxPoint x="400" y="360" as="sourcePoint" />
            <mxPoint x="580" y="450" as="targetPoint" />
          </mxGeometry>
        </mxCell>
        <mxCell id="reuZfihGQCaQvjt2Z-B4-30" value="CommandManager" style="swimlane;fontStyle=1;align=center;verticalAlign=top;childLayout=stackLayout;horizontal=1;startSize=26;horizontalStack=0;resizeParent=1;resizeParentMax=0;resizeLast=0;collapsible=1;marginBottom=0;whiteSpace=wrap;html=1;" vertex="1" parent="1">
          <mxGeometry x="320" y="-50" width="340" height="110" as="geometry" />
        </mxCell>
        <mxCell id="reuZfihGQCaQvjt2Z-B4-31" value="- commandList: HashMap&amp;lt;String, Command&amp;gt;" style="text;strokeColor=none;fillColor=none;align=left;verticalAlign=top;spacingLeft=4;spacingRight=4;overflow=hidden;rotatable=0;points=[[0,0.5],[1,0.5]];portConstraint=eastwest;whiteSpace=wrap;html=1;" vertex="1" parent="reuZfihGQCaQvjt2Z-B4-30">
          <mxGeometry y="26" width="340" height="24" as="geometry" />
        </mxCell>
        <mxCell id="reuZfihGQCaQvjt2Z-B4-32" value="" style="line;strokeWidth=1;fillColor=none;align=left;verticalAlign=middle;spacingTop=-1;spacingLeft=3;spacingRight=3;rotatable=0;labelPosition=right;points=[];portConstraint=eastwest;strokeColor=inherit;" vertex="1" parent="reuZfihGQCaQvjt2Z-B4-30">
          <mxGeometry y="50" width="340" height="8" as="geometry" />
        </mxCell>
        <mxCell id="reuZfihGQCaQvjt2Z-B4-33" value="&lt;div&gt;+createCommand(name: String, command: Command): void&lt;/div&gt;&lt;div&gt;+ getCommands(): String&lt;/div&gt;&lt;div&gt;+ getCommand(name:String): Command&lt;br&gt;&lt;/div&gt;" style="text;strokeColor=none;fillColor=none;align=left;verticalAlign=top;spacingLeft=4;spacingRight=4;overflow=hidden;rotatable=0;points=[[0,0.5],[1,0.5]];portConstraint=eastwest;whiteSpace=wrap;html=1;" vertex="1" parent="reuZfihGQCaQvjt2Z-B4-30">
          <mxGeometry y="58" width="340" height="52" as="geometry" />
        </mxCell>
        <mxCell id="reuZfihGQCaQvjt2Z-B4-36" value="Use" style="endArrow=open;endSize=12;dashed=1;html=1;rounded=0;" edge="1" parent="1" source="reuZfihGQCaQvjt2Z-B4-16" target="reuZfihGQCaQvjt2Z-B4-30">
          <mxGeometry width="160" relative="1" as="geometry">
            <mxPoint x="420" y="210" as="sourcePoint" />
            <mxPoint x="580" y="210" as="targetPoint" />
          </mxGeometry>
        </mxCell>
        <mxCell id="reuZfihGQCaQvjt2Z-B4-37" value="Use" style="endArrow=open;endSize=12;dashed=1;html=1;rounded=0;" edge="1" parent="1" source="reuZfihGQCaQvjt2Z-B4-6" target="reuZfihGQCaQvjt2Z-B4-30">
          <mxGeometry width="160" relative="1" as="geometry">
            <mxPoint x="420" y="210" as="sourcePoint" />
            <mxPoint x="580" y="210" as="targetPoint" />
          </mxGeometry>
        </mxCell>
        <mxCell id="reuZfihGQCaQvjt2Z-B4-38" value="Use" style="endArrow=open;endSize=12;dashed=1;html=1;rounded=0;" edge="1" parent="1" source="reuZfihGQCaQvjt2Z-B4-30" target="reuZfihGQCaQvjt2Z-B4-6">
          <mxGeometry width="160" relative="1" as="geometry">
            <mxPoint x="420" y="210" as="sourcePoint" />
            <mxPoint x="580" y="210" as="targetPoint" />
            <Array as="points">
              <mxPoint x="590" y="110" />
            </Array>
          </mxGeometry>
        </mxCell>
        <mxCell id="reuZfihGQCaQvjt2Z-B4-39" value="&lt;div&gt;ScriptReader&lt;/div&gt;" style="swimlane;fontStyle=1;align=center;verticalAlign=top;childLayout=stackLayout;horizontal=1;startSize=26;horizontalStack=0;resizeParent=1;resizeParentMax=0;resizeLast=0;collapsible=1;marginBottom=0;whiteSpace=wrap;html=1;" vertex="1" parent="1">
          <mxGeometry x="120" y="-54" width="180" height="114" as="geometry" />
        </mxCell>
        <mxCell id="reuZfihGQCaQvjt2Z-B4-40" value="&lt;div&gt;- filename: String&lt;/div&gt;&lt;div&gt;~ inputStream: FileInputStream&lt;/div&gt;&lt;div&gt;~ reader: InputStreamReader&lt;br&gt;&lt;/div&gt;" style="text;strokeColor=none;fillColor=none;align=left;verticalAlign=top;spacingLeft=4;spacingRight=4;overflow=hidden;rotatable=0;points=[[0,0.5],[1,0.5]];portConstraint=eastwest;whiteSpace=wrap;html=1;" vertex="1" parent="reuZfihGQCaQvjt2Z-B4-39">
          <mxGeometry y="26" width="180" height="54" as="geometry" />
        </mxCell>
        <mxCell id="reuZfihGQCaQvjt2Z-B4-41" value="" style="line;strokeWidth=1;fillColor=none;align=left;verticalAlign=middle;spacingTop=-1;spacingLeft=3;spacingRight=3;rotatable=0;labelPosition=right;points=[];portConstraint=eastwest;strokeColor=inherit;" vertex="1" parent="reuZfihGQCaQvjt2Z-B4-39">
          <mxGeometry y="80" width="180" height="8" as="geometry" />
        </mxCell>
        <mxCell id="reuZfihGQCaQvjt2Z-B4-42" value="+ readFile(): String" style="text;strokeColor=none;fillColor=none;align=left;verticalAlign=top;spacingLeft=4;spacingRight=4;overflow=hidden;rotatable=0;points=[[0,0.5],[1,0.5]];portConstraint=eastwest;whiteSpace=wrap;html=1;" vertex="1" parent="reuZfihGQCaQvjt2Z-B4-39">
          <mxGeometry y="88" width="180" height="26" as="geometry" />
        </mxCell>
        <mxCell id="reuZfihGQCaQvjt2Z-B4-43" value="Use" style="endArrow=open;endSize=12;dashed=1;html=1;rounded=0;" edge="1" parent="1" source="reuZfihGQCaQvjt2Z-B4-16" target="reuZfihGQCaQvjt2Z-B4-39">
          <mxGeometry width="160" relative="1" as="geometry">
            <mxPoint x="160" y="70" as="sourcePoint" />
            <mxPoint x="320" y="70" as="targetPoint" />
          </mxGeometry>
        </mxCell>
        <mxCell id="reuZfihGQCaQvjt2Z-B4-44" value="&amp;lt;&amp;lt;Enumeration&amp;gt;&amp;gt;&lt;br&gt;Color" style="swimlane;fontStyle=0;childLayout=stackLayout;horizontal=1;startSize=40;fillColor=none;horizontalStack=0;resizeParent=1;resizeParentMax=0;resizeLast=0;collapsible=1;marginBottom=0;whiteSpace=wrap;html=1;" vertex="1" parent="1">
          <mxGeometry x="-360" y="173" width="110" height="110" as="geometry" />
        </mxCell>
        <mxCell id="reuZfihGQCaQvjt2Z-B4-45" value="&lt;div&gt;GREEN,&lt;br&gt;YELLOW,&lt;br&gt;ORANGE,&lt;br&gt;WHITE&lt;br&gt;&lt;/div&gt;" style="text;strokeColor=none;fillColor=none;align=left;verticalAlign=top;spacingLeft=4;spacingRight=4;overflow=hidden;rotatable=0;points=[[0,0.5],[1,0.5]];portConstraint=eastwest;whiteSpace=wrap;html=1;" vertex="1" parent="reuZfihGQCaQvjt2Z-B4-44">
          <mxGeometry y="40" width="110" height="70" as="geometry" />
        </mxCell>
        <mxCell id="reuZfihGQCaQvjt2Z-B4-48" value="&amp;lt;&amp;lt;Enumeration&amp;gt;&amp;gt;&lt;br&gt;DragonCharacter" style="swimlane;fontStyle=0;childLayout=stackLayout;horizontal=1;startSize=40;fillColor=none;horizontalStack=0;resizeParent=1;resizeParentMax=0;resizeLast=0;collapsible=1;marginBottom=0;whiteSpace=wrap;html=1;" vertex="1" parent="1">
          <mxGeometry x="-360" y="300" width="110" height="120" as="geometry" />
        </mxCell>
        <mxCell id="reuZfihGQCaQvjt2Z-B4-49" value="EVIL,&lt;br&gt;GOOD,&lt;br&gt;CHAOTIC,&lt;br&gt;CHAOTIC_EVIL,&lt;br&gt;FICKLE" style="text;strokeColor=none;fillColor=none;align=left;verticalAlign=top;spacingLeft=4;spacingRight=4;overflow=hidden;rotatable=0;points=[[0,0.5],[1,0.5]];portConstraint=eastwest;whiteSpace=wrap;html=1;" vertex="1" parent="reuZfihGQCaQvjt2Z-B4-48">
          <mxGeometry y="40" width="110" height="80" as="geometry" />
        </mxCell>
        <mxCell id="reuZfihGQCaQvjt2Z-B4-50" value="&amp;lt;&amp;lt;Enumeration&amp;gt;&amp;gt;&lt;br&gt;DragonType" style="swimlane;fontStyle=0;childLayout=stackLayout;horizontal=1;startSize=40;fillColor=none;horizontalStack=0;resizeParent=1;resizeParentMax=0;resizeLast=0;collapsible=1;marginBottom=0;whiteSpace=wrap;html=1;" vertex="1" parent="1">
          <mxGeometry x="-360" y="443" width="120" height="120" as="geometry" />
        </mxCell>
        <mxCell id="reuZfihGQCaQvjt2Z-B4-51" value="WATER,&lt;br&gt;UNDERGROUND,&lt;br&gt;AIR" style="text;strokeColor=none;fillColor=none;align=left;verticalAlign=top;spacingLeft=4;spacingRight=4;overflow=hidden;rotatable=0;points=[[0,0.5],[1,0.5]];portConstraint=eastwest;whiteSpace=wrap;html=1;" vertex="1" parent="reuZfihGQCaQvjt2Z-B4-50">
          <mxGeometry y="40" width="120" height="80" as="geometry" />
        </mxCell>
        <mxCell id="reuZfihGQCaQvjt2Z-B4-52" value="Coordinates" style="swimlane;fontStyle=1;align=center;verticalAlign=top;childLayout=stackLayout;horizontal=1;startSize=26;horizontalStack=0;resizeParent=1;resizeParentMax=0;resizeLast=0;collapsible=1;marginBottom=0;whiteSpace=wrap;html=1;" vertex="1" parent="1">
          <mxGeometry x="-400" y="650" width="190" height="150" as="geometry" />
        </mxCell>
        <mxCell id="reuZfihGQCaQvjt2Z-B4-53" value="&lt;div&gt;- x: Integer&lt;/div&gt;&lt;div&gt;- y: Float&lt;br&gt;&lt;/div&gt;" style="text;strokeColor=none;fillColor=none;align=left;verticalAlign=top;spacingLeft=4;spacingRight=4;overflow=hidden;rotatable=0;points=[[0,0.5],[1,0.5]];portConstraint=eastwest;whiteSpace=wrap;html=1;" vertex="1" parent="reuZfihGQCaQvjt2Z-B4-52">
          <mxGeometry y="26" width="190" height="34" as="geometry" />
        </mxCell>
        <mxCell id="reuZfihGQCaQvjt2Z-B4-54" value="" style="line;strokeWidth=1;fillColor=none;align=left;verticalAlign=middle;spacingTop=-1;spacingLeft=3;spacingRight=3;rotatable=0;labelPosition=right;points=[];portConstraint=eastwest;strokeColor=inherit;" vertex="1" parent="reuZfihGQCaQvjt2Z-B4-52">
          <mxGeometry y="60" width="190" height="8" as="geometry" />
        </mxCell>
        <mxCell id="reuZfihGQCaQvjt2Z-B4-55" value="&lt;div&gt;+ getX(): int&lt;/div&gt;&lt;div&gt;+ getY(): float&lt;/div&gt;&lt;div&gt;+ getXPtr(): Integer&lt;/div&gt;&lt;div&gt;+ getYPtr(): Float&lt;/div&gt;&lt;div&gt;+ equals(other: Object): boolean&lt;br&gt;&lt;/div&gt;" style="text;strokeColor=none;fillColor=none;align=left;verticalAlign=top;spacingLeft=4;spacingRight=4;overflow=hidden;rotatable=0;points=[[0,0.5],[1,0.5]];portConstraint=eastwest;whiteSpace=wrap;html=1;" vertex="1" parent="reuZfihGQCaQvjt2Z-B4-52">
          <mxGeometry y="68" width="190" height="82" as="geometry" />
        </mxCell>
        <mxCell id="reuZfihGQCaQvjt2Z-B4-56" value="DragonCave" style="swimlane;fontStyle=1;align=center;verticalAlign=top;childLayout=stackLayout;horizontal=1;startSize=26;horizontalStack=0;resizeParent=1;resizeParentMax=0;resizeLast=0;collapsible=1;marginBottom=0;whiteSpace=wrap;html=1;" vertex="1" parent="1">
          <mxGeometry x="-60" y="690" width="220" height="160" as="geometry" />
        </mxCell>
        <mxCell id="reuZfihGQCaQvjt2Z-B4-57" value="- depth: Double&lt;br&gt;- numberOfTreasures: Float" style="text;strokeColor=none;fillColor=none;align=left;verticalAlign=top;spacingLeft=4;spacingRight=4;overflow=hidden;rotatable=0;points=[[0,0.5],[1,0.5]];portConstraint=eastwest;whiteSpace=wrap;html=1;" vertex="1" parent="reuZfihGQCaQvjt2Z-B4-56">
          <mxGeometry y="26" width="220" height="34" as="geometry" />
        </mxCell>
        <mxCell id="reuZfihGQCaQvjt2Z-B4-58" value="" style="line;strokeWidth=1;fillColor=none;align=left;verticalAlign=middle;spacingTop=-1;spacingLeft=3;spacingRight=3;rotatable=0;labelPosition=right;points=[];portConstraint=eastwest;strokeColor=inherit;" vertex="1" parent="reuZfihGQCaQvjt2Z-B4-56">
          <mxGeometry y="60" width="220" height="8" as="geometry" />
        </mxCell>
        <mxCell id="reuZfihGQCaQvjt2Z-B4-59" value="+getDepth(): double&lt;br&gt;&lt;div&gt;+ getNumberOfTreasures(): float&lt;/div&gt;&lt;div&gt;+ equals(other: Object): boolean&lt;/div&gt;&lt;div&gt;+ hashCode(): int&lt;/div&gt;&lt;div&gt;+ compareTo(other: DragonCave): int&lt;br&gt;+ toString(): String&lt;br&gt;&lt;/div&gt;" style="text;strokeColor=none;fillColor=none;align=left;verticalAlign=top;spacingLeft=4;spacingRight=4;overflow=hidden;rotatable=0;points=[[0,0.5],[1,0.5]];portConstraint=eastwest;whiteSpace=wrap;html=1;" vertex="1" parent="reuZfihGQCaQvjt2Z-B4-56">
          <mxGeometry y="68" width="220" height="92" as="geometry" />
        </mxCell>
        <mxCell id="reuZfihGQCaQvjt2Z-B4-60" value="Dragon" style="swimlane;fontStyle=1;align=center;verticalAlign=top;childLayout=stackLayout;horizontal=1;startSize=26;horizontalStack=0;resizeParent=1;resizeParentMax=0;resizeLast=0;collapsible=1;marginBottom=0;whiteSpace=wrap;html=1;" vertex="1" parent="1">
          <mxGeometry x="-140" y="110" width="280" height="460" as="geometry" />
        </mxCell>
        <mxCell id="reuZfihGQCaQvjt2Z-B4-61" value="&lt;div&gt;- id: int&lt;/div&gt;&lt;div&gt;- name: String&lt;/div&gt;&lt;div&gt;- coordinates: Coordinates&lt;/div&gt;&lt;div&gt;- creationDate: Date&lt;/div&gt;&lt;div&gt;- age: int&lt;/div&gt;&lt;div&gt;- color: Color&lt;/div&gt;&lt;div&gt;- type: DragonType&lt;/div&gt;&lt;div&gt;- character: DragonCharacter&lt;/div&gt;&lt;div&gt;- cave: DragonCave&lt;br&gt;&lt;/div&gt;" style="text;strokeColor=none;fillColor=none;align=left;verticalAlign=top;spacingLeft=4;spacingRight=4;overflow=hidden;rotatable=0;points=[[0,0.5],[1,0.5]];portConstraint=eastwest;whiteSpace=wrap;html=1;" vertex="1" parent="reuZfihGQCaQvjt2Z-B4-60">
          <mxGeometry y="26" width="280" height="134" as="geometry" />
        </mxCell>
        <mxCell id="reuZfihGQCaQvjt2Z-B4-62" value="" style="line;strokeWidth=1;fillColor=none;align=left;verticalAlign=middle;spacingTop=-1;spacingLeft=3;spacingRight=3;rotatable=0;labelPosition=right;points=[];portConstraint=eastwest;strokeColor=inherit;" vertex="1" parent="reuZfihGQCaQvjt2Z-B4-60">
          <mxGeometry y="160" width="280" height="8" as="geometry" />
        </mxCell>
        <mxCell id="reuZfihGQCaQvjt2Z-B4-63" value="&lt;div&gt;- setId(id: int): void&lt;/div&gt;&lt;div&gt;- setName(name: String): void&lt;/div&gt;&lt;div&gt;- setCoordinates(coordinates: Coordinates): void&lt;/div&gt;&lt;div&gt;- setDate(creationDate: Date): void&lt;/div&gt;&lt;div&gt;- setAge(age: int): void&lt;/div&gt;&lt;div&gt;- setColor(color: Color): void&lt;/div&gt;&lt;div&gt;- setType(type: DragonType): void&lt;/div&gt;&lt;div&gt;- setCharacter(character: DragonCharacter): void&lt;/div&gt;&lt;div&gt;- setCave(cave: DragonCave): void&lt;/div&gt;&lt;div&gt;+ getId(): int&lt;/div&gt;&lt;div&gt;+ getName(): String&lt;/div&gt;&lt;div&gt;+ getCoordinates(): Coordinates&lt;/div&gt;&lt;div&gt;+ getDate(): Date&lt;/div&gt;&lt;div&gt;+ getAge(): int&lt;/div&gt;&lt;div&gt;+ getColor(): Color&lt;/div&gt;&lt;div&gt;+ getType(): DragonType&lt;/div&gt;&lt;div&gt;+ getCharacter(): DragonCharacter&lt;/div&gt;&lt;div&gt;+ getCave(): DragonCave&lt;/div&gt;&lt;div&gt;+ compareTo(otherDragon: Dragon): int&lt;/div&gt;&lt;div&gt;+ toString(): String&lt;br&gt;&lt;/div&gt;" style="text;strokeColor=none;fillColor=none;align=left;verticalAlign=top;spacingLeft=4;spacingRight=4;overflow=hidden;rotatable=0;points=[[0,0.5],[1,0.5]];portConstraint=eastwest;whiteSpace=wrap;html=1;" vertex="1" parent="reuZfihGQCaQvjt2Z-B4-60">
          <mxGeometry y="168" width="280" height="292" as="geometry" />
        </mxCell>
        <mxCell id="reuZfihGQCaQvjt2Z-B4-66" value="Use" style="endArrow=open;endSize=12;dashed=1;html=1;rounded=0;" edge="1" parent="1" source="reuZfihGQCaQvjt2Z-B4-60" target="reuZfihGQCaQvjt2Z-B4-16">
          <mxGeometry width="160" relative="1" as="geometry">
            <mxPoint x="30" y="400" as="sourcePoint" />
            <mxPoint x="190" y="400" as="targetPoint" />
          </mxGeometry>
        </mxCell>
        <mxCell id="reuZfihGQCaQvjt2Z-B4-67" value="Use" style="endArrow=open;endSize=12;dashed=1;html=1;rounded=0;" edge="1" parent="1" source="reuZfihGQCaQvjt2Z-B4-56" target="reuZfihGQCaQvjt2Z-B4-60">
          <mxGeometry width="160" relative="1" as="geometry">
            <mxPoint x="-100" y="540" as="sourcePoint" />
            <mxPoint x="10" y="660" as="targetPoint" />
          </mxGeometry>
        </mxCell>
        <mxCell id="reuZfihGQCaQvjt2Z-B4-68" value="Use" style="endArrow=open;endSize=12;dashed=1;html=1;rounded=0;" edge="1" parent="1" source="reuZfihGQCaQvjt2Z-B4-52" target="reuZfihGQCaQvjt2Z-B4-60">
          <mxGeometry width="160" relative="1" as="geometry">
            <mxPoint x="-200" y="390" as="sourcePoint" />
            <mxPoint x="-40" y="390" as="targetPoint" />
          </mxGeometry>
        </mxCell>
        <mxCell id="reuZfihGQCaQvjt2Z-B4-69" value="Use" style="endArrow=open;endSize=12;dashed=1;html=1;rounded=0;" edge="1" parent="1" source="reuZfihGQCaQvjt2Z-B4-50" target="reuZfihGQCaQvjt2Z-B4-60">
          <mxGeometry width="160" relative="1" as="geometry">
            <mxPoint x="-200" y="390" as="sourcePoint" />
            <mxPoint x="-40" y="390" as="targetPoint" />
          </mxGeometry>
        </mxCell>
        <mxCell id="reuZfihGQCaQvjt2Z-B4-70" value="Use" style="endArrow=open;endSize=12;dashed=1;html=1;rounded=0;" edge="1" parent="1" source="reuZfihGQCaQvjt2Z-B4-48" target="reuZfihGQCaQvjt2Z-B4-60">
          <mxGeometry width="160" relative="1" as="geometry">
            <mxPoint x="-200" y="390" as="sourcePoint" />
            <mxPoint x="-40" y="390" as="targetPoint" />
          </mxGeometry>
        </mxCell>
        <mxCell id="reuZfihGQCaQvjt2Z-B4-71" value="Use" style="endArrow=open;endSize=12;dashed=1;html=1;rounded=0;" edge="1" parent="1" source="reuZfihGQCaQvjt2Z-B4-44" target="reuZfihGQCaQvjt2Z-B4-60">
          <mxGeometry width="160" relative="1" as="geometry">
            <mxPoint x="-200" y="390" as="sourcePoint" />
            <mxPoint x="-40" y="390" as="targetPoint" />
          </mxGeometry>
        </mxCell>
        <mxCell id="reuZfihGQCaQvjt2Z-B4-72" value="Ascending" style="swimlane;fontStyle=1;align=center;verticalAlign=top;childLayout=stackLayout;horizontal=1;startSize=26;horizontalStack=0;resizeParent=1;resizeParentMax=0;resizeLast=0;collapsible=1;marginBottom=0;whiteSpace=wrap;html=1;" vertex="1" parent="1">
          <mxGeometry x="710" y="513" width="180" height="60" as="geometry" />
        </mxCell>
        <mxCell id="reuZfihGQCaQvjt2Z-B4-73" value="" style="line;strokeWidth=1;fillColor=none;align=left;verticalAlign=middle;spacingTop=-1;spacingLeft=3;spacingRight=3;rotatable=0;labelPosition=right;points=[];portConstraint=eastwest;strokeColor=inherit;" vertex="1" parent="reuZfihGQCaQvjt2Z-B4-72">
          <mxGeometry y="26" width="180" height="8" as="geometry" />
        </mxCell>
        <mxCell id="reuZfihGQCaQvjt2Z-B4-74" value="+ execute(args: String[]): void" style="text;strokeColor=none;fillColor=none;align=left;verticalAlign=top;spacingLeft=4;spacingRight=4;overflow=hidden;rotatable=0;points=[[0,0.5],[1,0.5]];portConstraint=eastwest;whiteSpace=wrap;html=1;" vertex="1" parent="reuZfihGQCaQvjt2Z-B4-72">
          <mxGeometry y="34" width="180" height="26" as="geometry" />
        </mxCell>
        <mxCell id="reuZfihGQCaQvjt2Z-B4-75" value="Clear" style="swimlane;fontStyle=1;align=center;verticalAlign=top;childLayout=stackLayout;horizontal=1;startSize=26;horizontalStack=0;resizeParent=1;resizeParentMax=0;resizeLast=0;collapsible=1;marginBottom=0;whiteSpace=wrap;html=1;" vertex="1" parent="1">
          <mxGeometry x="900" y="230" width="180" height="60" as="geometry" />
        </mxCell>
        <mxCell id="reuZfihGQCaQvjt2Z-B4-76" value="" style="line;strokeWidth=1;fillColor=none;align=left;verticalAlign=middle;spacingTop=-1;spacingLeft=3;spacingRight=3;rotatable=0;labelPosition=right;points=[];portConstraint=eastwest;strokeColor=inherit;" vertex="1" parent="reuZfihGQCaQvjt2Z-B4-75">
          <mxGeometry y="26" width="180" height="8" as="geometry" />
        </mxCell>
        <mxCell id="reuZfihGQCaQvjt2Z-B4-77" value="+ execute(args: String[]): void" style="text;strokeColor=none;fillColor=none;align=left;verticalAlign=top;spacingLeft=4;spacingRight=4;overflow=hidden;rotatable=0;points=[[0,0.5],[1,0.5]];portConstraint=eastwest;whiteSpace=wrap;html=1;" vertex="1" parent="reuZfihGQCaQvjt2Z-B4-75">
          <mxGeometry y="34" width="180" height="26" as="geometry" />
        </mxCell>
        <mxCell id="reuZfihGQCaQvjt2Z-B4-78" value="Descending" style="swimlane;fontStyle=1;align=center;verticalAlign=top;childLayout=stackLayout;horizontal=1;startSize=26;horizontalStack=0;resizeParent=1;resizeParentMax=0;resizeLast=0;collapsible=1;marginBottom=0;whiteSpace=wrap;html=1;" vertex="1" parent="1">
          <mxGeometry x="900" y="300" width="180" height="60" as="geometry" />
        </mxCell>
        <mxCell id="reuZfihGQCaQvjt2Z-B4-79" value="" style="line;strokeWidth=1;fillColor=none;align=left;verticalAlign=middle;spacingTop=-1;spacingLeft=3;spacingRight=3;rotatable=0;labelPosition=right;points=[];portConstraint=eastwest;strokeColor=inherit;" vertex="1" parent="reuZfihGQCaQvjt2Z-B4-78">
          <mxGeometry y="26" width="180" height="8" as="geometry" />
        </mxCell>
        <mxCell id="reuZfihGQCaQvjt2Z-B4-80" value="+ execute(args: String[]): void" style="text;strokeColor=none;fillColor=none;align=left;verticalAlign=top;spacingLeft=4;spacingRight=4;overflow=hidden;rotatable=0;points=[[0,0.5],[1,0.5]];portConstraint=eastwest;whiteSpace=wrap;html=1;" vertex="1" parent="reuZfihGQCaQvjt2Z-B4-78">
          <mxGeometry y="34" width="180" height="26" as="geometry" />
        </mxCell>
        <mxCell id="reuZfihGQCaQvjt2Z-B4-81" value="ExecuteScript" style="swimlane;fontStyle=1;align=center;verticalAlign=top;childLayout=stackLayout;horizontal=1;startSize=26;horizontalStack=0;resizeParent=1;resizeParentMax=0;resizeLast=0;collapsible=1;marginBottom=0;whiteSpace=wrap;html=1;" vertex="1" parent="1">
          <mxGeometry x="900" y="370" width="180" height="60" as="geometry" />
        </mxCell>
        <mxCell id="reuZfihGQCaQvjt2Z-B4-82" value="" style="line;strokeWidth=1;fillColor=none;align=left;verticalAlign=middle;spacingTop=-1;spacingLeft=3;spacingRight=3;rotatable=0;labelPosition=right;points=[];portConstraint=eastwest;strokeColor=inherit;" vertex="1" parent="reuZfihGQCaQvjt2Z-B4-81">
          <mxGeometry y="26" width="180" height="8" as="geometry" />
        </mxCell>
        <mxCell id="reuZfihGQCaQvjt2Z-B4-83" value="+ execute(args: String[]): void" style="text;strokeColor=none;fillColor=none;align=left;verticalAlign=top;spacingLeft=4;spacingRight=4;overflow=hidden;rotatable=0;points=[[0,0.5],[1,0.5]];portConstraint=eastwest;whiteSpace=wrap;html=1;" vertex="1" parent="reuZfihGQCaQvjt2Z-B4-81">
          <mxGeometry y="34" width="180" height="26" as="geometry" />
        </mxCell>
        <mxCell id="reuZfihGQCaQvjt2Z-B4-84" value="Exit" style="swimlane;fontStyle=1;align=center;verticalAlign=top;childLayout=stackLayout;horizontal=1;startSize=26;horizontalStack=0;resizeParent=1;resizeParentMax=0;resizeLast=0;collapsible=1;marginBottom=0;whiteSpace=wrap;html=1;" vertex="1" parent="1">
          <mxGeometry x="900" y="443" width="180" height="60" as="geometry" />
        </mxCell>
        <mxCell id="reuZfihGQCaQvjt2Z-B4-85" value="" style="line;strokeWidth=1;fillColor=none;align=left;verticalAlign=middle;spacingTop=-1;spacingLeft=3;spacingRight=3;rotatable=0;labelPosition=right;points=[];portConstraint=eastwest;strokeColor=inherit;" vertex="1" parent="reuZfihGQCaQvjt2Z-B4-84">
          <mxGeometry y="26" width="180" height="8" as="geometry" />
        </mxCell>
        <mxCell id="reuZfihGQCaQvjt2Z-B4-86" value="+ execute(args: String[]): void" style="text;strokeColor=none;fillColor=none;align=left;verticalAlign=top;spacingLeft=4;spacingRight=4;overflow=hidden;rotatable=0;points=[[0,0.5],[1,0.5]];portConstraint=eastwest;whiteSpace=wrap;html=1;" vertex="1" parent="reuZfihGQCaQvjt2Z-B4-84">
          <mxGeometry y="34" width="180" height="26" as="geometry" />
        </mxCell>
        <mxCell id="reuZfihGQCaQvjt2Z-B4-87" value="Help" style="swimlane;fontStyle=1;align=center;verticalAlign=top;childLayout=stackLayout;horizontal=1;startSize=26;horizontalStack=0;resizeParent=1;resizeParentMax=0;resizeLast=0;collapsible=1;marginBottom=0;whiteSpace=wrap;html=1;" vertex="1" parent="1">
          <mxGeometry x="900" y="513" width="180" height="60" as="geometry" />
        </mxCell>
        <mxCell id="reuZfihGQCaQvjt2Z-B4-88" value="" style="line;strokeWidth=1;fillColor=none;align=left;verticalAlign=middle;spacingTop=-1;spacingLeft=3;spacingRight=3;rotatable=0;labelPosition=right;points=[];portConstraint=eastwest;strokeColor=inherit;" vertex="1" parent="reuZfihGQCaQvjt2Z-B4-87">
          <mxGeometry y="26" width="180" height="8" as="geometry" />
        </mxCell>
        <mxCell id="reuZfihGQCaQvjt2Z-B4-89" value="+ execute(args: String[]): void" style="text;strokeColor=none;fillColor=none;align=left;verticalAlign=top;spacingLeft=4;spacingRight=4;overflow=hidden;rotatable=0;points=[[0,0.5],[1,0.5]];portConstraint=eastwest;whiteSpace=wrap;html=1;" vertex="1" parent="reuZfihGQCaQvjt2Z-B4-87">
          <mxGeometry y="34" width="180" height="26" as="geometry" />
        </mxCell>
        <mxCell id="reuZfihGQCaQvjt2Z-B4-90" value="History" style="swimlane;fontStyle=1;align=center;verticalAlign=top;childLayout=stackLayout;horizontal=1;startSize=26;horizontalStack=0;resizeParent=1;resizeParentMax=0;resizeLast=0;collapsible=1;marginBottom=0;whiteSpace=wrap;html=1;" vertex="1" parent="1">
          <mxGeometry x="710" y="586" width="180" height="60" as="geometry" />
        </mxCell>
        <mxCell id="reuZfihGQCaQvjt2Z-B4-91" value="" style="line;strokeWidth=1;fillColor=none;align=left;verticalAlign=middle;spacingTop=-1;spacingLeft=3;spacingRight=3;rotatable=0;labelPosition=right;points=[];portConstraint=eastwest;strokeColor=inherit;" vertex="1" parent="reuZfihGQCaQvjt2Z-B4-90">
          <mxGeometry y="26" width="180" height="8" as="geometry" />
        </mxCell>
        <mxCell id="reuZfihGQCaQvjt2Z-B4-92" value="+ execute(args: String[]): void" style="text;strokeColor=none;fillColor=none;align=left;verticalAlign=top;spacingLeft=4;spacingRight=4;overflow=hidden;rotatable=0;points=[[0,0.5],[1,0.5]];portConstraint=eastwest;whiteSpace=wrap;html=1;" vertex="1" parent="reuZfihGQCaQvjt2Z-B4-90">
          <mxGeometry y="34" width="180" height="26" as="geometry" />
        </mxCell>
        <mxCell id="reuZfihGQCaQvjt2Z-B4-93" value="RemoveID" style="swimlane;fontStyle=1;align=center;verticalAlign=top;childLayout=stackLayout;horizontal=1;startSize=26;horizontalStack=0;resizeParent=1;resizeParentMax=0;resizeLast=0;collapsible=1;marginBottom=0;whiteSpace=wrap;html=1;" vertex="1" parent="1">
          <mxGeometry x="900" y="586" width="180" height="60" as="geometry" />
        </mxCell>
        <mxCell id="reuZfihGQCaQvjt2Z-B4-94" value="" style="line;strokeWidth=1;fillColor=none;align=left;verticalAlign=middle;spacingTop=-1;spacingLeft=3;spacingRight=3;rotatable=0;labelPosition=right;points=[];portConstraint=eastwest;strokeColor=inherit;" vertex="1" parent="reuZfihGQCaQvjt2Z-B4-93">
          <mxGeometry y="26" width="180" height="8" as="geometry" />
        </mxCell>
        <mxCell id="reuZfihGQCaQvjt2Z-B4-95" value="+ execute(args: String[]): void" style="text;strokeColor=none;fillColor=none;align=left;verticalAlign=top;spacingLeft=4;spacingRight=4;overflow=hidden;rotatable=0;points=[[0,0.5],[1,0.5]];portConstraint=eastwest;whiteSpace=wrap;html=1;" vertex="1" parent="reuZfihGQCaQvjt2Z-B4-93">
          <mxGeometry y="34" width="180" height="26" as="geometry" />
        </mxCell>
        <mxCell id="reuZfihGQCaQvjt2Z-B4-96" value="&lt;div&gt;RemoveIndex&lt;/div&gt;" style="swimlane;fontStyle=1;align=center;verticalAlign=top;childLayout=stackLayout;horizontal=1;startSize=26;horizontalStack=0;resizeParent=1;resizeParentMax=0;resizeLast=0;collapsible=1;marginBottom=0;whiteSpace=wrap;html=1;" vertex="1" parent="1">
          <mxGeometry x="1111" y="230" width="180" height="60" as="geometry" />
        </mxCell>
        <mxCell id="reuZfihGQCaQvjt2Z-B4-97" value="" style="line;strokeWidth=1;fillColor=none;align=left;verticalAlign=middle;spacingTop=-1;spacingLeft=3;spacingRight=3;rotatable=0;labelPosition=right;points=[];portConstraint=eastwest;strokeColor=inherit;" vertex="1" parent="reuZfihGQCaQvjt2Z-B4-96">
          <mxGeometry y="26" width="180" height="8" as="geometry" />
        </mxCell>
        <mxCell id="reuZfihGQCaQvjt2Z-B4-98" value="+ execute(args: String[]): void" style="text;strokeColor=none;fillColor=none;align=left;verticalAlign=top;spacingLeft=4;spacingRight=4;overflow=hidden;rotatable=0;points=[[0,0.5],[1,0.5]];portConstraint=eastwest;whiteSpace=wrap;html=1;" vertex="1" parent="reuZfihGQCaQvjt2Z-B4-96">
          <mxGeometry y="34" width="180" height="26" as="geometry" />
        </mxCell>
        <mxCell id="reuZfihGQCaQvjt2Z-B4-99" value="Save" style="swimlane;fontStyle=1;align=center;verticalAlign=top;childLayout=stackLayout;horizontal=1;startSize=26;horizontalStack=0;resizeParent=1;resizeParentMax=0;resizeLast=0;collapsible=1;marginBottom=0;whiteSpace=wrap;html=1;" vertex="1" parent="1">
          <mxGeometry x="1111" y="300" width="180" height="60" as="geometry" />
        </mxCell>
        <mxCell id="reuZfihGQCaQvjt2Z-B4-100" value="" style="line;strokeWidth=1;fillColor=none;align=left;verticalAlign=middle;spacingTop=-1;spacingLeft=3;spacingRight=3;rotatable=0;labelPosition=right;points=[];portConstraint=eastwest;strokeColor=inherit;" vertex="1" parent="reuZfihGQCaQvjt2Z-B4-99">
          <mxGeometry y="26" width="180" height="8" as="geometry" />
        </mxCell>
        <mxCell id="reuZfihGQCaQvjt2Z-B4-101" value="+ execute(args: String[]): void" style="text;strokeColor=none;fillColor=none;align=left;verticalAlign=top;spacingLeft=4;spacingRight=4;overflow=hidden;rotatable=0;points=[[0,0.5],[1,0.5]];portConstraint=eastwest;whiteSpace=wrap;html=1;" vertex="1" parent="reuZfihGQCaQvjt2Z-B4-99">
          <mxGeometry y="34" width="180" height="26" as="geometry" />
        </mxCell>
        <mxCell id="reuZfihGQCaQvjt2Z-B4-102" value="Show" style="swimlane;fontStyle=1;align=center;verticalAlign=top;childLayout=stackLayout;horizontal=1;startSize=26;horizontalStack=0;resizeParent=1;resizeParentMax=0;resizeLast=0;collapsible=1;marginBottom=0;whiteSpace=wrap;html=1;" vertex="1" parent="1">
          <mxGeometry x="1111" y="370" width="180" height="60" as="geometry" />
        </mxCell>
        <mxCell id="reuZfihGQCaQvjt2Z-B4-103" value="" style="line;strokeWidth=1;fillColor=none;align=left;verticalAlign=middle;spacingTop=-1;spacingLeft=3;spacingRight=3;rotatable=0;labelPosition=right;points=[];portConstraint=eastwest;strokeColor=inherit;" vertex="1" parent="reuZfihGQCaQvjt2Z-B4-102">
          <mxGeometry y="26" width="180" height="8" as="geometry" />
        </mxCell>
        <mxCell id="reuZfihGQCaQvjt2Z-B4-104" value="+ execute(args: String[]): void" style="text;strokeColor=none;fillColor=none;align=left;verticalAlign=top;spacingLeft=4;spacingRight=4;overflow=hidden;rotatable=0;points=[[0,0.5],[1,0.5]];portConstraint=eastwest;whiteSpace=wrap;html=1;" vertex="1" parent="reuZfihGQCaQvjt2Z-B4-102">
          <mxGeometry y="34" width="180" height="26" as="geometry" />
        </mxCell>
        <mxCell id="reuZfihGQCaQvjt2Z-B4-105" value="Sort" style="swimlane;fontStyle=1;align=center;verticalAlign=top;childLayout=stackLayout;horizontal=1;startSize=26;horizontalStack=0;resizeParent=1;resizeParentMax=0;resizeLast=0;collapsible=1;marginBottom=0;whiteSpace=wrap;html=1;" vertex="1" parent="1">
          <mxGeometry x="1111" y="443" width="180" height="60" as="geometry" />
        </mxCell>
        <mxCell id="reuZfihGQCaQvjt2Z-B4-106" value="" style="line;strokeWidth=1;fillColor=none;align=left;verticalAlign=middle;spacingTop=-1;spacingLeft=3;spacingRight=3;rotatable=0;labelPosition=right;points=[];portConstraint=eastwest;strokeColor=inherit;" vertex="1" parent="reuZfihGQCaQvjt2Z-B4-105">
          <mxGeometry y="26" width="180" height="8" as="geometry" />
        </mxCell>
        <mxCell id="reuZfihGQCaQvjt2Z-B4-107" value="+ execute(args: String[]): void" style="text;strokeColor=none;fillColor=none;align=left;verticalAlign=top;spacingLeft=4;spacingRight=4;overflow=hidden;rotatable=0;points=[[0,0.5],[1,0.5]];portConstraint=eastwest;whiteSpace=wrap;html=1;" vertex="1" parent="reuZfihGQCaQvjt2Z-B4-105">
          <mxGeometry y="34" width="180" height="26" as="geometry" />
        </mxCell>
        <mxCell id="reuZfihGQCaQvjt2Z-B4-108" value="SumOfAge" style="swimlane;fontStyle=1;align=center;verticalAlign=top;childLayout=stackLayout;horizontal=1;startSize=26;horizontalStack=0;resizeParent=1;resizeParentMax=0;resizeLast=0;collapsible=1;marginBottom=0;whiteSpace=wrap;html=1;" vertex="1" parent="1">
          <mxGeometry x="1111" y="513" width="180" height="60" as="geometry" />
        </mxCell>
        <mxCell id="reuZfihGQCaQvjt2Z-B4-109" value="" style="line;strokeWidth=1;fillColor=none;align=left;verticalAlign=middle;spacingTop=-1;spacingLeft=3;spacingRight=3;rotatable=0;labelPosition=right;points=[];portConstraint=eastwest;strokeColor=inherit;" vertex="1" parent="reuZfihGQCaQvjt2Z-B4-108">
          <mxGeometry y="26" width="180" height="8" as="geometry" />
        </mxCell>
        <mxCell id="reuZfihGQCaQvjt2Z-B4-110" value="+ execute(args: String[]): void" style="text;strokeColor=none;fillColor=none;align=left;verticalAlign=top;spacingLeft=4;spacingRight=4;overflow=hidden;rotatable=0;points=[[0,0.5],[1,0.5]];portConstraint=eastwest;whiteSpace=wrap;html=1;" vertex="1" parent="reuZfihGQCaQvjt2Z-B4-108">
          <mxGeometry y="34" width="180" height="26" as="geometry" />
        </mxCell>
        <mxCell id="reuZfihGQCaQvjt2Z-B4-111" value="UpdateID" style="swimlane;fontStyle=1;align=center;verticalAlign=top;childLayout=stackLayout;horizontal=1;startSize=26;horizontalStack=0;resizeParent=1;resizeParentMax=0;resizeLast=0;collapsible=1;marginBottom=0;whiteSpace=wrap;html=1;" vertex="1" parent="1">
          <mxGeometry x="1111" y="586" width="180" height="60" as="geometry" />
        </mxCell>
        <mxCell id="reuZfihGQCaQvjt2Z-B4-112" value="" style="line;strokeWidth=1;fillColor=none;align=left;verticalAlign=middle;spacingTop=-1;spacingLeft=3;spacingRight=3;rotatable=0;labelPosition=right;points=[];portConstraint=eastwest;strokeColor=inherit;" vertex="1" parent="reuZfihGQCaQvjt2Z-B4-111">
          <mxGeometry y="26" width="180" height="8" as="geometry" />
        </mxCell>
        <mxCell id="reuZfihGQCaQvjt2Z-B4-113" value="+ execute(args: String[]): void" style="text;strokeColor=none;fillColor=none;align=left;verticalAlign=top;spacingLeft=4;spacingRight=4;overflow=hidden;rotatable=0;points=[[0,0.5],[1,0.5]];portConstraint=eastwest;whiteSpace=wrap;html=1;" vertex="1" parent="reuZfihGQCaQvjt2Z-B4-111">
          <mxGeometry y="34" width="180" height="26" as="geometry" />
        </mxCell>
        <mxCell id="reuZfihGQCaQvjt2Z-B4-114" value="Info" style="swimlane;fontStyle=1;align=center;verticalAlign=top;childLayout=stackLayout;horizontal=1;startSize=26;horizontalStack=0;resizeParent=1;resizeParentMax=0;resizeLast=0;collapsible=1;marginBottom=0;whiteSpace=wrap;html=1;" vertex="1" parent="1">
          <mxGeometry x="710" y="663" width="180" height="60" as="geometry" />
        </mxCell>
        <mxCell id="reuZfihGQCaQvjt2Z-B4-115" value="" style="line;strokeWidth=1;fillColor=none;align=left;verticalAlign=middle;spacingTop=-1;spacingLeft=3;spacingRight=3;rotatable=0;labelPosition=right;points=[];portConstraint=eastwest;strokeColor=inherit;" vertex="1" parent="reuZfihGQCaQvjt2Z-B4-114">
          <mxGeometry y="26" width="180" height="8" as="geometry" />
        </mxCell>
        <mxCell id="reuZfihGQCaQvjt2Z-B4-116" value="+ execute(args: String[]): void" style="text;strokeColor=none;fillColor=none;align=left;verticalAlign=top;spacingLeft=4;spacingRight=4;overflow=hidden;rotatable=0;points=[[0,0.5],[1,0.5]];portConstraint=eastwest;whiteSpace=wrap;html=1;" vertex="1" parent="reuZfihGQCaQvjt2Z-B4-114">
          <mxGeometry y="34" width="180" height="26" as="geometry" />
        </mxCell>
        <mxCell id="reuZfihGQCaQvjt2Z-B4-117" value="Extends" style="endArrow=block;endSize=16;endFill=0;html=1;rounded=0;" edge="1" parent="1" source="reuZfihGQCaQvjt2Z-B4-12" target="reuZfihGQCaQvjt2Z-B4-6">
          <mxGeometry width="160" relative="1" as="geometry">
            <mxPoint x="510" y="410" as="sourcePoint" />
            <mxPoint x="670" y="410" as="targetPoint" />
            <Array as="points">
              <mxPoint x="750" y="410" />
            </Array>
          </mxGeometry>
        </mxCell>
        <mxCell id="reuZfihGQCaQvjt2Z-B4-118" value="Extends" style="endArrow=block;endSize=16;endFill=0;html=1;rounded=0;" edge="1" parent="1">
          <mxGeometry width="160" relative="1" as="geometry">
            <mxPoint x="742.2739024390241" y="513.0000000000005" as="sourcePoint" />
            <mxPoint x="689.9961016949153" y="394" as="targetPoint" />
            <Array as="points">
              <mxPoint x="700" y="460" />
            </Array>
          </mxGeometry>
        </mxCell>
        <mxCell id="reuZfihGQCaQvjt2Z-B4-119" value="Extends" style="endArrow=block;endSize=16;endFill=0;html=1;rounded=0;" edge="1" parent="1" source="reuZfihGQCaQvjt2Z-B4-90" target="reuZfihGQCaQvjt2Z-B4-6">
          <mxGeometry width="160" relative="1" as="geometry">
            <mxPoint x="796" y="463" as="sourcePoint" />
            <mxPoint x="757" y="414" as="targetPoint" />
            <Array as="points">
              <mxPoint x="690" y="590" />
            </Array>
          </mxGeometry>
        </mxCell>
        <mxCell id="reuZfihGQCaQvjt2Z-B4-120" value="Extends" style="endArrow=block;endSize=16;endFill=0;html=1;rounded=0;" edge="1" parent="1" source="reuZfihGQCaQvjt2Z-B4-114" target="reuZfihGQCaQvjt2Z-B4-6">
          <mxGeometry width="160" relative="1" as="geometry">
            <mxPoint x="806" y="473" as="sourcePoint" />
            <mxPoint x="767" y="424" as="targetPoint" />
            <Array as="points">
              <mxPoint x="660" y="670" />
            </Array>
          </mxGeometry>
        </mxCell>
        <mxCell id="reuZfihGQCaQvjt2Z-B4-121" value="Extends" style="endArrow=block;endSize=16;endFill=0;html=1;rounded=0;entryX=0.993;entryY=0.072;entryDx=0;entryDy=0;entryPerimeter=0;" edge="1" parent="1" source="reuZfihGQCaQvjt2Z-B4-75" target="reuZfihGQCaQvjt2Z-B4-6">
          <mxGeometry width="160" relative="1" as="geometry">
            <mxPoint x="816" y="483" as="sourcePoint" />
            <mxPoint x="777" y="434" as="targetPoint" />
            <Array as="points">
              <mxPoint x="830" y="230" />
            </Array>
          </mxGeometry>
        </mxCell>
        <mxCell id="reuZfihGQCaQvjt2Z-B4-122" value="Extends" style="endArrow=block;endSize=16;endFill=0;html=1;rounded=0;" edge="1" parent="1" source="reuZfihGQCaQvjt2Z-B4-78" target="reuZfihGQCaQvjt2Z-B4-6">
          <mxGeometry width="160" relative="1" as="geometry">
            <mxPoint x="710" y="340" as="sourcePoint" />
            <mxPoint x="870" y="340" as="targetPoint" />
          </mxGeometry>
        </mxCell>
        <mxCell id="reuZfihGQCaQvjt2Z-B4-123" value="Extends" style="endArrow=block;endSize=16;endFill=0;html=1;rounded=0;" edge="1" parent="1" source="reuZfihGQCaQvjt2Z-B4-81" target="reuZfihGQCaQvjt2Z-B4-6">
          <mxGeometry width="160" relative="1" as="geometry">
            <mxPoint x="710" y="340" as="sourcePoint" />
            <mxPoint x="870" y="340" as="targetPoint" />
          </mxGeometry>
        </mxCell>
        <mxCell id="reuZfihGQCaQvjt2Z-B4-124" value="Extends" style="endArrow=block;endSize=16;endFill=0;html=1;rounded=0;" edge="1" parent="1" source="reuZfihGQCaQvjt2Z-B4-84" target="reuZfihGQCaQvjt2Z-B4-6">
          <mxGeometry width="160" relative="1" as="geometry">
            <mxPoint x="710" y="340" as="sourcePoint" />
            <mxPoint x="870" y="340" as="targetPoint" />
          </mxGeometry>
        </mxCell>
        <mxCell id="reuZfihGQCaQvjt2Z-B4-125" value="Extends" style="endArrow=block;endSize=16;endFill=0;html=1;rounded=0;" edge="1" parent="1" source="reuZfihGQCaQvjt2Z-B4-87" target="reuZfihGQCaQvjt2Z-B4-6">
          <mxGeometry width="160" relative="1" as="geometry">
            <mxPoint x="710" y="340" as="sourcePoint" />
            <mxPoint x="870" y="340" as="targetPoint" />
          </mxGeometry>
        </mxCell>
        <mxCell id="reuZfihGQCaQvjt2Z-B4-126" value="Extends" style="endArrow=block;endSize=16;endFill=0;html=1;rounded=0;" edge="1" parent="1" source="reuZfihGQCaQvjt2Z-B4-93" target="reuZfihGQCaQvjt2Z-B4-6">
          <mxGeometry x="0.2425" y="5" width="160" relative="1" as="geometry">
            <mxPoint x="710" y="340" as="sourcePoint" />
            <mxPoint x="870" y="340" as="targetPoint" />
            <mxPoint x="1" as="offset" />
          </mxGeometry>
        </mxCell>
        <mxCell id="reuZfihGQCaQvjt2Z-B4-128" value="Extends" style="endArrow=block;endSize=16;endFill=0;html=1;rounded=0;" edge="1" parent="1" source="reuZfihGQCaQvjt2Z-B4-96" target="reuZfihGQCaQvjt2Z-B4-6">
          <mxGeometry x="0.6732" y="1" width="160" relative="1" as="geometry">
            <mxPoint x="710" y="340" as="sourcePoint" />
            <mxPoint x="870" y="340" as="targetPoint" />
            <mxPoint as="offset" />
          </mxGeometry>
        </mxCell>
        <mxCell id="reuZfihGQCaQvjt2Z-B4-129" value="Extends" style="endArrow=block;endSize=16;endFill=0;html=1;rounded=0;" edge="1" parent="1" source="reuZfihGQCaQvjt2Z-B4-99" target="reuZfihGQCaQvjt2Z-B4-6">
          <mxGeometry x="-0.6956" y="-3" width="160" relative="1" as="geometry">
            <mxPoint x="710" y="340" as="sourcePoint" />
            <mxPoint x="870" y="340" as="targetPoint" />
            <mxPoint as="offset" />
          </mxGeometry>
        </mxCell>
        <mxCell id="reuZfihGQCaQvjt2Z-B4-130" value="Extends" style="endArrow=block;endSize=16;endFill=0;html=1;rounded=0;" edge="1" parent="1" source="reuZfihGQCaQvjt2Z-B4-102" target="reuZfihGQCaQvjt2Z-B4-6">
          <mxGeometry x="-0.8175" y="2" width="160" relative="1" as="geometry">
            <mxPoint x="710" y="340" as="sourcePoint" />
            <mxPoint x="870" y="340" as="targetPoint" />
            <mxPoint as="offset" />
          </mxGeometry>
        </mxCell>
        <mxCell id="reuZfihGQCaQvjt2Z-B4-131" value="Extends" style="endArrow=block;endSize=16;endFill=0;html=1;rounded=0;" edge="1" parent="1" source="reuZfihGQCaQvjt2Z-B4-105" target="reuZfihGQCaQvjt2Z-B4-6">
          <mxGeometry x="-0.8786" y="2" width="160" relative="1" as="geometry">
            <mxPoint x="1160" y="470" as="sourcePoint" />
            <mxPoint x="870" y="340" as="targetPoint" />
            <mxPoint as="offset" />
          </mxGeometry>
        </mxCell>
        <mxCell id="reuZfihGQCaQvjt2Z-B4-132" value="Extends" style="endArrow=block;endSize=16;endFill=0;html=1;rounded=0;" edge="1" parent="1" target="reuZfihGQCaQvjt2Z-B4-6">
          <mxGeometry x="-0.6923" y="-2" width="160" relative="1" as="geometry">
            <mxPoint x="1170" y="540" as="sourcePoint" />
            <mxPoint x="870" y="340" as="targetPoint" />
            <mxPoint as="offset" />
          </mxGeometry>
        </mxCell>
        <mxCell id="reuZfihGQCaQvjt2Z-B4-133" value="Extends" style="endArrow=block;endSize=16;endFill=0;html=1;rounded=0;" edge="1" parent="1" source="reuZfihGQCaQvjt2Z-B4-111" target="reuZfihGQCaQvjt2Z-B4-6">
          <mxGeometry x="-0.7621" y="12" width="160" relative="1" as="geometry">
            <mxPoint x="710" y="340" as="sourcePoint" />
            <mxPoint x="870" y="340" as="targetPoint" />
            <Array as="points">
              <mxPoint x="1090" y="550" />
            </Array>
            <mxPoint as="offset" />
          </mxGeometry>
        </mxCell>
      </root>
    </mxGraphModel>
  </diagram>
</mxfile>
